<svg width="200" height="200" viewBox="0 0 200 200" fill="none" xmlns="http://www.w3.org/2000/svg">
  <!-- 外圆背景 -->
  <circle cx="100" cy="100" r="90" fill="url(#gradient1)" />
  
  <!-- 内圆白色背景 -->
  <circle cx="100" cy="100" r="80" fill="white" />
  
  <!-- 眼睛图标代表"洞察" -->
  <g transform="translate(100, 85)">
    <!-- 眼睛轮廓 -->
    <path d="M-40 0 C-40 -22 -22 -40 0 -40 C22 -40 40 -22 40 0 C40 22 22 40 0 40 C-22 40 -40 22 -40 0" 
          fill="none" 
          stroke="url(#gradient2)" 
          stroke-width="4"/>
    
    <!-- 瞳孔 -->
    <circle cx="0" cy="0" r="20" fill="url(#gradient2)" />
    <circle cx="0" cy="0" r="12" fill="white" />
    <circle cx="0" cy="0" r="8" fill="#4a5568" />
    
    <!-- 高光 -->
    <circle cx="5" cy="-5" r="3" fill="white" opacity="0.8" />
  </g>
  
  <!-- 文档线条代表"报告" -->
  <g transform="translate(100, 100)">
    <rect x="-25" y="25" width="50" height="3" rx="1.5" fill="#718096" opacity="0.8" />
    <rect x="-35" y="35" width="70" height="3" rx="1.5" fill="#718096" opacity="0.6" />
    <rect x="-30" y="45" width="60" height="3" rx="1.5" fill="#718096" opacity="0.4" />
  </g>
  
  <!-- 定义渐变 -->
  <defs>
    <linearGradient id="gradient1" x1="0%" y1="0%" x2="100%" y2="100%">
      <stop offset="0%" style="stop-color:#667eea;stop-opacity:1" />
      <stop offset="100%" style="stop-color:#764ba2;stop-opacity:1" />
    </linearGradient>
    
    <linearGradient id="gradient2" x1="0%" y1="0%" x2="100%" y2="100%">
      <stop offset="0%" style="stop-color:#667eea;stop-opacity:1" />
      <stop offset="100%" style="stop-color:#764ba2;stop-opacity:1" />
    </linearGradient>
  </defs>
</svg>